<svg width="530" height="452" viewBox="0 0 530 452" fill="none" xmlns="http://www.w3.org/2000/svg">
<g clip-path="url(#clip0_59_10214)">
<path opacity="0.1" d="M144.869 16.1414C160.787 1.99177 185.773 -0.908908 208.514 0.217623C279.951 3.76048 344.44 38.204 400.221 77.1646C420.384 91.2652 440.291 106.465 453.402 125.888C480.105 165.426 472.17 220.196 435.065 252.762C422.444 263.848 407.136 272.354 391.431 279.869C363.497 293.263 333.356 304.011 301.651 307.08C279.041 309.257 256.153 307.488 233.679 304.446C170.88 295.929 109.241 277.121 57.5794 244.947C34.9205 230.835 13.564 213.29 4.22359 190.46C-5.11682 167.63 0.861258 138.694 23.9997 125.181C33.569 119.592 45.0075 117.072 56.2116 114.699C72.6963 111.211 89.4534 107.771 104.331 100.68C119.698 93.355 137.894 79.1836 134.848 62.9714C131.589 45.5727 128.968 30.2911 144.869 16.1414Z" fill="#989898"/>
<path d="M210.279 152.043V216.027C210.277 219.791 211.018 223.518 212.459 226.996C213.901 230.474 216.015 233.633 218.68 236.295C221.345 238.956 224.51 241.066 227.992 242.505C231.475 243.944 235.207 244.683 238.976 244.68H277.232C280.619 244.682 283.973 244.017 287.102 242.724C290.231 241.43 293.074 239.532 295.469 237.14C297.863 234.747 299.761 231.907 301.055 228.781C302.348 225.655 303.012 222.305 303.008 218.922V152.043C303.008 139.763 298.123 127.986 289.428 119.303C280.733 110.62 268.94 105.741 256.643 105.741C244.347 105.741 232.554 110.62 223.859 119.303C215.164 127.986 210.279 139.763 210.279 152.043Z" fill="#65617D"/>
<path opacity="0.1" d="M210.279 152.043V216.027C210.277 219.791 211.018 223.518 212.459 226.996C213.901 230.474 216.015 233.633 218.68 236.295C221.345 238.956 224.51 241.066 227.992 242.505C231.475 243.944 235.207 244.683 238.976 244.68H277.232C280.619 244.682 283.973 244.017 287.102 242.724C290.231 241.43 293.074 239.532 295.469 237.14C297.863 234.747 299.761 231.907 301.055 228.781C302.348 225.655 303.012 222.305 303.008 218.922V152.043C303.008 139.763 298.123 127.986 289.428 119.303C280.733 110.62 268.94 105.741 256.643 105.741C244.347 105.741 232.554 110.62 223.859 119.303C215.164 127.986 210.279 139.763 210.279 152.043Z" fill="black"/>
<path d="M211.658 152.729V214.814C211.657 218.465 212.376 222.081 213.775 225.455C215.173 228.828 217.224 231.894 219.81 234.475C222.396 237.057 225.465 239.104 228.844 240.501C232.222 241.897 235.843 242.614 239.5 242.612H276.621C279.906 242.614 283.158 241.97 286.193 240.716C289.227 239.462 291.985 237.623 294.307 235.304C296.63 232.985 298.472 230.232 299.728 227.202C300.985 224.171 301.631 220.923 301.629 217.644V152.729C301.629 140.814 296.89 129.387 288.453 120.962C280.017 112.537 268.575 107.804 256.644 107.804C244.713 107.804 233.271 112.537 224.834 120.962C216.398 129.387 211.658 140.814 211.658 152.729Z" fill="#65617D"/>
<path opacity="0.1" d="M222.83 161.905V213.54C222.808 218.212 224.109 222.795 226.584 226.759C230.366 232.746 236.644 236.658 243.756 236.658H271.662C278.441 236.658 284.381 232.702 287.684 226.759C289.523 223.427 290.477 219.68 290.458 215.875V161.905C290.458 141.273 275.319 124.544 256.644 124.544C247.309 124.544 238.856 128.724 232.737 135.488C226.277 142.767 222.747 152.179 222.83 161.905Z" fill="black"/>
<path d="M316.315 344.386C319.141 344.386 321.432 342.098 321.432 339.276C321.432 336.454 319.141 334.166 316.315 334.166C313.489 334.166 311.198 336.454 311.198 339.276C311.198 342.098 313.489 344.386 316.315 344.386Z" fill="#333F4F"/>
<path d="M307.16 364.381C309.986 364.381 312.277 362.093 312.277 359.271C312.277 356.448 309.986 354.161 307.16 354.161C304.334 354.161 302.043 356.448 302.043 359.271C302.043 362.093 304.334 364.381 307.16 364.381Z" fill="#333F4F"/>
<path d="M215.865 368C218.691 368 220.982 365.712 220.982 362.89C220.982 360.067 218.691 357.78 215.865 357.78C213.039 357.78 210.748 360.067 210.748 362.89C210.748 365.712 213.039 368 215.865 368Z" fill="#333F4F"/>
<path d="M195.468 341.916C198.294 341.916 200.585 339.628 200.585 336.806C200.585 333.983 198.294 331.695 195.468 331.695C192.642 331.695 190.351 333.983 190.351 336.806C190.351 339.628 192.642 341.916 195.468 341.916Z" fill="#333F4F"/>
<path d="M259.614 249.029H253.205V289.012H259.614V249.029Z" fill="#333F4F"/>
<path opacity="0.1" d="M259.614 282.542H253.205V289.018H259.614V282.542Z" fill="#333F4F"/>
<path d="M251.968 328.425H260.851V284.06H251.968V328.425Z" fill="#333F4F"/>
<path d="M196.579 328.136L254.731 325.758V335.086H187.244C187.918 333.123 189.17 331.409 190.835 330.169C192.501 328.929 194.503 328.22 196.579 328.136Z" fill="#333F4F"/>
<path d="M312.887 328.136L254.73 325.758V335.086H322.222C321.549 333.123 320.297 331.409 318.631 330.169C316.965 328.929 314.963 328.22 312.887 328.136Z" fill="#333F4F"/>
<path d="M260.856 326.71L307.28 349.567C309.245 350.538 310.9 352.039 312.055 353.9C313.211 355.761 313.822 357.908 313.819 360.098V360.789L259.597 337.181L251.968 336.637L206.879 365.388C206.592 363.264 206.893 361.101 207.749 359.136C208.605 357.17 209.983 355.476 211.734 354.237L251.968 325.785L260.856 326.71Z" fill="#333F4F"/>
<path opacity="0.1" d="M253.21 249.029V253.339C254.325 253.382 255.468 253.404 256.638 253.404C257.646 253.404 258.638 253.404 259.613 253.355V249.029H253.21Z" fill="#333F4F"/>
<path d="M256.637 251.886C269.696 251.886 280.283 248.794 280.283 244.98C280.283 241.165 269.696 238.073 256.637 238.073C243.579 238.073 232.992 241.165 232.992 244.98C232.992 248.794 243.579 251.886 256.637 251.886Z" fill="#333F4F"/>
<path d="M233.199 244.974C233.221 245.358 233.322 245.734 233.496 246.077C233.669 246.421 233.911 246.725 234.207 246.971C234.442 247.197 234.693 247.405 234.959 247.592C238.48 250.106 246.948 251.88 256.839 251.88C266.73 251.88 275.269 250.09 278.773 247.554C278.948 247.433 279.115 247.302 279.275 247.162C279.623 246.909 279.912 246.583 280.122 246.207C280.332 245.831 280.457 245.414 280.49 244.985C280.49 241.175 269.907 238.079 256.839 238.079C243.771 238.079 233.199 241.159 233.199 244.974Z" fill="#333F4F"/>
<path opacity="0.1" d="M233.199 244.974C233.221 245.358 233.322 245.734 233.496 246.077C233.669 246.421 233.911 246.725 234.207 246.971C234.442 247.197 234.693 247.405 234.959 247.592C238.48 250.106 246.948 251.88 256.839 251.88C266.73 251.88 275.269 250.09 278.773 247.554C278.948 247.433 279.115 247.302 279.275 247.162C279.623 246.909 279.912 246.583 280.122 246.207C280.332 245.831 280.457 245.414 280.49 244.985C280.49 241.175 269.907 238.079 256.839 238.079C243.771 238.079 233.199 241.159 233.199 244.974Z" fill="#333F4F"/>
<path opacity="0.1" d="M232.998 244.974C233.02 245.358 233.121 245.734 233.294 246.078C233.467 246.421 233.71 246.725 234.006 246.971C237.02 246.226 239.101 245.6 239.101 245.6C239.101 245.6 259.94 246.765 279.073 247.162C279.422 246.909 279.711 246.583 279.921 246.207C280.131 245.831 280.256 245.414 280.289 244.985C280.289 241.175 269.706 238.079 256.638 238.079C243.57 238.079 232.998 241.159 232.998 244.974Z" fill="#333F4F"/>
<path opacity="0.1" d="M216.649 230.705C219.212 234.385 222.629 237.39 226.609 239.464C230.588 241.537 235.011 242.618 239.499 242.612H276.621C280.898 242.615 285.104 241.522 288.836 239.437C292.569 237.352 295.703 234.346 297.939 230.705H216.649Z" fill="#333F4F"/>
<path opacity="0.1" d="M233.199 244.974C233.221 245.358 233.322 245.734 233.496 246.077C233.669 246.421 233.911 246.725 234.207 246.971C234.442 247.197 234.693 247.405 234.959 247.592C249.551 248.477 264.183 248.464 278.773 247.554C278.948 247.433 279.115 247.302 279.275 247.162C279.623 246.909 279.912 246.583 280.122 246.207C280.332 245.831 280.457 245.414 280.49 244.985C280.49 241.175 269.907 238.079 256.839 238.079C243.771 238.079 233.199 241.159 233.199 244.974Z" fill="#333F4F"/>
<path d="M211.946 244.343C241.76 248.104 271.929 248.104 301.743 244.343C302.57 244.346 303.39 244.187 304.156 243.873C304.921 243.559 305.617 243.098 306.203 242.515C306.79 241.932 307.255 241.239 307.572 240.476C307.89 239.713 308.053 238.894 308.053 238.068C308.053 236.404 307.391 234.808 306.213 233.631C305.035 232.454 303.437 231.793 301.77 231.793H211.946C210.28 231.793 208.682 232.454 207.503 233.631C206.325 234.808 205.663 236.404 205.663 238.068C205.663 239.732 206.325 241.328 207.503 242.505C208.682 243.682 210.28 244.343 211.946 244.343Z" fill="#333F4F"/>
<path d="M294.707 312.686C294.707 312.686 300.904 319.02 305.132 319.624C309.361 320.229 312.838 333.807 306.947 334.863C301.056 335.918 289.721 331.695 288.059 329.883C286.397 328.071 280.354 317.366 280.354 317.366L294.707 312.686Z" fill="#65617D"/>
<path d="M260.561 245.088C260.561 245.088 275.673 273.905 275.972 277.829C276.272 281.752 289.116 298.378 289.116 298.378L273.1 318.569C273.1 318.569 270.986 313.437 267.362 311.624C263.738 309.812 264.49 305.742 264.49 305.742C264.49 305.742 260.714 305.742 257.994 301.214C255.275 296.686 251.951 292.163 251.951 290.215C251.951 288.267 232.006 267.733 232.006 267.733L233.515 245.856L237.597 238.917L260.561 245.088Z" fill="#3F3D56"/>
<path opacity="0.1" d="M299.847 246.748L299.978 246.863C301.809 248.495 322.359 266.683 322.359 267.113C322.359 267.543 329.759 279.788 320.544 290.351C311.329 300.914 290.174 318.264 290.174 318.264C290.174 318.264 280.959 324.903 279.75 326.264C278.54 327.624 260.262 326.264 271.139 313.888C282.016 301.513 292.289 287.635 292.289 287.635C292.289 287.635 274.158 283.282 272.954 280.245C271.75 277.208 296.823 239.505 296.823 239.505L299.847 246.748Z" fill="black"/>
<path d="M300.452 246.748L300.582 246.863C302.413 248.495 322.963 266.683 322.963 267.113C322.963 267.543 330.364 279.788 321.149 290.351C311.934 300.914 290.779 318.264 290.779 318.264C290.779 318.264 281.564 324.903 280.354 326.264C279.144 327.624 260.861 326.264 271.744 313.888C282.626 301.513 292.893 287.635 292.893 287.635C292.893 287.635 274.763 283.282 273.553 280.245C272.343 277.208 248.485 240.256 248.485 240.256L297.438 239.505L300.452 246.748Z" fill="#3F3D56"/>
<path d="M248.175 165.589L249.984 182.035C249.984 182.035 268.567 189.431 269.025 189.279C269.482 189.127 281.411 178.395 279.449 171.32C278.463 167.766 278.011 162.835 277.815 158.803C277.618 154.77 277.646 151.701 277.646 151.701C277.646 151.701 250.6 142.041 253.019 148.68C253.897 151.091 253.499 153.981 252.638 156.68C251.556 159.836 250.055 162.832 248.175 165.589Z" fill="#FCFCFC"/>
<path opacity="0.1" d="M252.627 156.669C252.79 156.86 252.959 157.039 253.128 157.214C256.278 160.547 260.577 162.563 265.157 162.853C269.737 163.144 274.256 161.689 277.804 158.781C277.596 154.786 277.635 151.679 277.635 151.679C277.635 151.679 250.589 142.019 253.008 148.659C253.886 151.08 253.488 153.97 252.627 156.669Z" fill="black"/>
<path d="M248.175 144.19C248.176 147.77 249.24 151.269 251.232 154.245C253.224 157.22 256.055 159.54 259.367 160.909C262.678 162.278 266.322 162.636 269.837 161.938C273.353 161.239 276.582 159.515 279.116 156.984C281.651 154.453 283.377 151.228 284.077 147.718C284.776 144.207 284.418 140.568 283.046 137.261C281.675 133.953 279.353 131.126 276.373 129.137C273.393 127.148 269.89 126.085 266.306 126.084C263.92 126.069 261.556 126.527 259.349 127.432C257.143 128.336 255.138 129.669 253.452 131.354C251.765 133.038 250.43 135.04 249.524 137.244C248.619 139.447 248.16 141.808 248.175 144.19Z" fill="#FCFCFC"/>
<path opacity="0.1" d="M270.534 182.645C270.534 182.645 277.618 166.928 280.054 166.928C282.49 166.928 286.255 248.229 286.255 248.229L249.243 248.805L247.728 206.122L255.275 168.31C255.275 168.31 262.071 183.227 270.534 182.645Z" fill="black"/>
<path opacity="0.1" d="M270.534 183.853C270.534 183.853 277.619 168.136 280.054 168.136C282.49 168.136 286.256 249.431 286.256 249.431L244.257 250.068L247.728 207.331L255.287 169.491C255.287 169.491 262.071 184.435 270.534 183.853Z" fill="black"/>
<path d="M270.534 183.249C270.534 183.249 277.619 167.532 280.054 167.532C282.49 167.532 286.256 248.854 286.256 248.854L244.257 249.491L247.728 206.754L255.287 168.914C255.287 168.914 262.071 183.831 270.534 183.249Z" fill="#65617D"/>
<path opacity="0.1" d="M277.422 162.596C277.422 162.596 278.692 160.74 280.506 161.344C282.321 161.948 283.678 160.288 285.493 161.948C287.307 163.608 294.555 165.872 295.917 165.116C297.28 164.359 302.108 167.684 303.171 169.644C304.233 171.603 307.699 176.887 307.699 176.887C307.699 176.887 310.724 180.506 310.271 182.471C309.819 184.435 311.329 186.694 313.138 187.597C314.947 188.501 318.587 197.556 318.587 197.556C318.587 197.556 317.601 209.671 321.677 211.777C325.753 213.883 322.734 223.097 322.734 223.097L303.465 218.531L298.015 206.155C298.015 206.155 300.13 242.373 302.697 245.687C305.263 249.001 305.568 251.129 305.568 251.129C305.568 251.129 295.596 253.241 293.482 255.048C291.367 256.854 285.776 254.596 285.776 254.596L280.326 206.465C280.326 206.465 278.365 197.41 278.365 192.735C278.365 188.06 277.422 162.596 277.422 162.596Z" fill="black"/>
<path d="M278.027 162.596C278.027 162.596 279.297 160.74 281.112 161.344C282.926 161.948 284.283 160.288 286.098 161.948C287.913 163.608 295.161 165.872 296.523 165.116C297.885 164.359 302.713 167.684 303.771 169.644C304.828 171.603 308.305 176.887 308.305 176.887C308.305 176.887 311.329 180.506 310.877 182.471C310.424 184.435 311.934 186.694 313.743 187.597C315.552 188.501 319.193 197.556 319.193 197.556C319.193 197.556 318.217 209.665 322.299 211.777C323.318 212.321 323.896 213.48 324.184 214.95C325.356 220.86 320.501 226.269 314.468 226.084L304.114 221.796L298.665 206.155C298.665 206.155 300.779 242.373 303.346 245.687C305.912 249.001 306.217 251.129 306.217 251.129C306.217 251.129 296.245 253.241 294.131 255.048C292.016 256.854 286.425 254.596 286.425 254.596L280.975 206.465C280.975 206.465 279.014 197.41 279.014 192.735C279.014 188.06 278.027 162.596 278.027 162.596Z" fill="#989898"/>
<path opacity="0.1" d="M311.324 188.805C311.324 188.805 309.509 193.785 304.523 193.333C299.536 192.882 311.324 188.805 311.324 188.805Z" fill="black"/>
<path opacity="0.1" d="M306.495 181.263C306.495 181.263 303.171 181.867 301.961 184.729C300.752 187.592 306.495 181.263 306.495 181.263Z" fill="black"/>
<path opacity="0.1" d="M297.155 176.131C297.155 176.735 295.035 187.298 297.155 191.673C299.275 196.049 298.964 201.181 298.964 201.181L297.155 176.131Z" fill="black"/>
<path opacity="0.1" d="M252.529 158.961C252.529 158.961 251.347 157.573 250.137 157.725C248.927 157.878 248.175 158.629 246.66 159.233C245.145 159.837 241.527 159.989 241.527 160.441C241.527 160.893 238.35 162.705 236.235 163.162C234.121 163.619 227.472 168.142 225.81 176.893C224.148 185.644 221.276 188.207 221.276 188.207L237.292 196.065C237.292 196.065 224.906 248.571 223.396 252.343C221.887 256.114 221.761 278.465 221.761 278.465C221.761 278.465 231.57 282.819 234.148 284.196C236.726 285.573 235.658 271.222 240.949 262.922C246.24 254.623 252.278 242.552 252.278 242.552L261.466 216.746C261.466 216.746 267.363 182.346 262.376 176.005C257.39 169.665 252.077 161.235 252.529 158.961Z" fill="black"/>
<path d="M251.924 158.961C251.924 158.961 250.742 157.573 249.532 157.725C248.322 157.878 247.57 158.629 246.055 159.233C244.54 159.837 240.922 159.989 240.922 160.441C240.922 160.893 237.75 162.705 235.63 163.162C233.511 163.619 226.857 168.136 225.222 176.887C223.587 185.638 220.693 188.201 220.693 188.201L236.666 196.065C236.666 196.065 224.279 248.571 222.77 252.343C221.26 256.114 221.135 278.465 221.135 278.465C221.135 278.465 230.944 282.819 233.521 284.196C236.099 285.573 235.031 271.167 240.317 262.89C245.603 254.612 251.646 242.52 251.646 242.52L260.861 216.746C260.861 216.746 266.758 182.346 261.772 176.005C256.785 169.665 251.472 161.235 251.924 158.961Z" fill="#989898"/>
<path opacity="0.1" d="M219.162 225.018C219.609 225.088 220.181 225.159 220.84 225.219C225.68 225.66 235.178 225.763 235.178 225.763C235.178 225.763 242.262 211.728 248.322 212.158C248.322 212.158 242.731 205.823 240.469 206.58C240.088 206.705 239.848 206.427 239.734 205.883C239.129 203.162 241.221 193.91 241.221 193.91L244.093 181.393L227.472 185.464C225.963 185.769 221.276 188.185 221.276 188.185C221.276 188.185 221.129 194.672 219.919 196.185C218.71 197.698 217.353 204.936 217.5 206.743C217.647 208.55 215.838 217.007 217.652 219.26C219.467 221.513 215.413 224.414 219.162 225.018Z" fill="black"/>
<path d="M281.258 323.848C281.258 323.848 282.168 328.827 281.111 332.011C280.054 335.195 280.201 342.123 280.959 344.528C281.716 346.933 284.283 350.259 277.335 351.766C270.387 353.274 265.7 351.918 265.395 350.71C265.09 349.502 263.586 344.675 264.79 341.959C265.994 339.244 266.425 332.163 264.185 328.076C261.945 323.989 263.433 317.665 265.548 316.914C267.662 316.163 271.291 314.498 271.291 314.498C271.291 314.498 267.362 321.573 270.986 323.102C274.61 324.631 281.258 323.848 281.258 323.848Z" fill="#65617D"/>
<path opacity="0.1" d="M248.175 144.19C248.165 148.816 249.939 153.267 253.129 156.62C253.145 156.593 253.16 156.563 253.172 156.533C253.717 155.385 254.224 154.193 254.18 152.936C254.131 151.418 253.254 150.046 252.971 148.544C252.616 146.65 253.238 144.735 253.848 142.895C254.295 141.556 255.161 139.929 256.573 140.093C256.845 140.162 257.125 140.195 257.406 140.19C258.153 140.076 258.306 139.102 258.393 138.351C258.619 136.587 259.404 134.941 260.632 133.653C261.86 132.365 263.468 131.501 265.221 131.189C265.618 131.101 266.033 131.129 266.414 131.271C266.959 131.505 267.226 132.071 267.7 132.397C269.232 133.459 271.183 131.429 273.046 131.586C274.632 131.717 275.597 133.333 276.251 134.781C276.905 136.229 277.717 137.878 279.27 138.215C279.392 138.251 279.519 138.262 279.646 138.248C279.772 138.234 279.894 138.195 280.005 138.133C280.485 137.78 280.153 137.045 279.907 136.501C279.27 135.064 279.695 133.927 280.452 132.903C278.108 129.971 274.908 127.839 271.297 126.802C267.686 125.766 263.842 125.875 260.296 127.116C256.75 128.357 253.677 130.667 251.504 133.728C249.331 136.789 248.163 140.449 248.164 144.201L248.175 144.19Z" fill="black"/>
<path d="M279.896 135.886C280.141 136.43 280.479 137.181 279.989 137.518C279.879 137.582 279.758 137.622 279.632 137.636C279.506 137.65 279.379 137.638 279.258 137.6C277.705 137.268 276.888 135.614 276.234 134.166C275.58 132.718 274.599 131.102 273.035 130.972C271.171 130.814 269.22 132.844 267.684 131.782C267.215 131.456 266.926 130.89 266.403 130.656C266.021 130.516 265.606 130.49 265.21 130.58C263.456 130.891 261.848 131.752 260.619 133.04C259.389 134.327 258.604 135.972 258.376 137.736C258.3 138.482 258.142 139.461 257.395 139.576C257.114 139.581 256.834 139.548 256.561 139.478C255.155 139.314 254.294 140.936 253.837 142.275C253.226 144.109 252.605 146.035 252.959 147.929C253.243 149.431 254.12 150.803 254.169 152.327C254.207 153.578 253.679 154.776 253.161 155.918C252.643 157.061 251.788 158.4 250.545 158.237C249.521 158.106 248.959 157.023 248.469 156.114C247.978 155.206 247.096 154.237 246.104 154.52C245.657 154.65 245.199 155.026 244.796 154.797C244.69 154.72 244.602 154.621 244.536 154.508C244.471 154.394 244.429 154.269 244.414 154.139C243.929 152.033 244.627 149.66 243.597 147.755C242.807 146.291 241.205 145.497 239.902 144.457C238.793 143.572 237.873 142.473 237.198 141.226C236.523 139.978 236.107 138.608 235.973 137.196C235.839 135.784 235.991 134.36 236.42 133.009C236.849 131.657 237.546 130.405 238.469 129.328C239.864 127.695 241.87 126.259 241.984 124.12C242.066 122.487 240.965 120.991 240.954 119.358C240.943 117.725 241.962 116.354 243.134 115.271C244.815 113.734 246.845 112.628 249.05 112.048C251.254 111.468 253.566 111.431 255.787 111.94C256.959 112.223 258.136 112.659 259.33 112.512C260.719 112.337 261.875 111.423 263.144 110.781C265.222 109.807 267.579 109.601 269.795 110.199C272.011 110.796 273.943 112.16 275.248 114.046C276.675 116.272 277.237 119.173 279.373 120.735C280.773 121.758 282.79 122.144 283.563 123.695C284.027 124.631 283.896 125.736 283.754 126.765C283.535 128.457 282.72 130.015 281.455 131.162C280.141 132.512 279.024 133.921 279.896 135.886Z" fill="#512E4E"/>
<g opacity="0.1">
<path d="M241.336 121.214C241.195 120.804 241.088 120.383 241.015 119.956C241.156 120.366 241.264 120.786 241.336 121.214Z" fill="black"/>
<path d="M279.591 134.569C279.515 134.292 279.415 134.022 279.292 133.763C278.42 131.793 279.537 130.389 280.839 129.072C282.101 127.924 282.914 126.366 283.134 124.675C283.207 124.214 283.251 123.748 283.264 123.282C283.371 123.418 283.466 123.564 283.548 123.717C284.011 124.653 283.88 125.758 283.738 126.786C283.519 128.478 282.704 130.037 281.439 131.184C280.447 132.201 279.564 133.257 279.591 134.569Z" fill="black"/>
<path d="M245.51 152.419C246.502 152.131 247.385 153.11 247.875 154.014C248.366 154.917 248.927 156.005 249.952 156.136C251.194 156.294 252.05 154.955 252.567 153.818C253.085 152.68 253.619 151.477 253.576 150.226C253.569 150.075 253.555 149.924 253.532 149.774C253.886 150.588 254.105 151.453 254.181 152.337C254.219 153.589 253.69 154.786 253.172 155.929C252.655 157.072 251.799 158.411 250.557 158.248C249.532 158.117 248.971 157.034 248.48 156.125C247.99 155.216 247.107 154.248 246.115 154.531C245.668 154.661 245.211 155.037 244.807 154.808C244.702 154.73 244.614 154.632 244.548 154.518C244.482 154.405 244.441 154.28 244.426 154.15C244.325 153.677 244.264 153.196 244.246 152.713C244.638 152.887 245.085 152.528 245.51 152.419Z" fill="black"/>
<path d="M239.309 142.356C240.611 143.396 242.219 144.19 243.009 145.654C243.327 146.291 243.513 146.985 243.554 147.695C242.753 146.28 241.183 145.491 239.903 144.468C237.892 142.85 236.537 140.559 236.088 138.019C236.768 139.718 237.878 141.213 239.309 142.356Z" fill="black"/>
<path d="M252.937 147.69C252.696 147.086 252.504 146.464 252.365 145.828C252.011 143.935 252.632 142.019 253.242 140.174C253.689 138.835 254.556 137.214 255.967 137.377C256.239 137.447 256.52 137.48 256.801 137.475C257.548 137.36 257.706 136.386 257.782 135.63C258.012 133.867 258.799 132.224 260.028 130.938C261.257 129.653 262.863 128.791 264.616 128.479C265.012 128.386 265.427 128.413 265.809 128.555C266.354 128.789 266.621 129.355 267.09 129.682C268.626 130.77 270.577 128.713 272.441 128.871C274.021 129.001 274.991 130.618 275.645 132.065C276.299 133.513 277.117 135.162 278.664 135.499C278.785 135.537 278.912 135.549 279.038 135.535C279.164 135.521 279.285 135.481 279.395 135.418C279.466 135.365 279.525 135.297 279.566 135.219C279.608 135.141 279.631 135.054 279.634 134.966C279.683 135.283 279.775 135.593 279.907 135.886C280.152 136.43 280.49 137.181 279.999 137.518C279.89 137.582 279.769 137.621 279.643 137.635C279.517 137.65 279.39 137.637 279.269 137.6C277.716 137.268 276.899 135.614 276.245 134.166C275.591 132.718 274.61 131.102 273.046 130.971C271.182 130.814 269.231 132.843 267.694 131.782C267.226 131.456 266.937 130.89 266.414 130.656C266.032 130.516 265.617 130.49 265.22 130.58C263.467 130.89 261.858 131.752 260.629 133.039C259.4 134.327 258.615 135.972 258.387 137.736C258.31 138.482 258.152 139.461 257.406 139.575C257.125 139.58 256.844 139.547 256.572 139.477C255.166 139.314 254.305 140.936 253.847 142.275C253.264 144.038 252.681 145.877 252.937 147.69Z" fill="black"/>
</g>
<path opacity="0.1" d="M220.862 225.219C225.701 225.66 235.2 225.763 235.2 225.763C235.2 225.763 242.284 211.728 248.344 212.158C248.344 212.158 242.753 205.823 240.491 206.58C240.11 206.705 239.87 206.427 239.756 205.883C233.838 207.69 222.557 212.103 221.451 219.853C221.135 221.965 220.944 223.728 220.862 225.219Z" fill="black"/>
<path d="M220.235 225.219C225.074 225.66 234.573 225.763 234.573 225.763C234.573 225.763 241.657 211.728 247.717 212.158C247.717 212.158 242.131 205.823 239.864 206.58C239.483 206.705 239.249 206.427 239.129 205.883C233.211 207.69 221.93 212.103 220.824 219.853C220.53 221.965 220.344 223.728 220.235 225.219Z" fill="#989898"/>
<path opacity="0.1" d="M262.676 265.605C262.676 265.605 249.052 262.286 246.965 264.098C244.878 265.91 262.676 265.605 262.676 265.605Z" fill="black"/>
<path opacity="0.1" d="M301.656 278.585C301.656 278.585 295.918 281.905 295.313 284.62C294.708 287.336 301.656 278.585 301.656 278.585Z" fill="black"/>
<path opacity="0.1" d="M278.692 339.739C278.692 339.739 270.834 338.531 268.823 339.837C266.812 341.143 278.692 339.739 278.692 339.739Z" fill="black"/>
<path d="M200.192 445.067C200.192 445.067 230.644 443.434 238.066 439.08C245.488 434.727 255.995 434.727 256.05 434.727L377.3 408.31L427.708 396.337L436.7 395.156L407 361.219L406.095 360.827L362.314 341.916C362.314 341.916 342.696 343.004 338.822 355.771C338.556 356.671 338.374 357.593 338.277 358.525C337.87 362.505 338.975 366.493 341.372 369.698C342.92 371.815 344.822 374.808 345.421 377.453C345.759 378.944 345.683 380.321 344.876 381.371C343.241 382.992 341.436 384.432 339.492 385.665C328.816 392.74 301.831 404.397 254.687 386.542C254.687 386.542 234.524 366.678 219.266 375.113C204.007 383.548 200.192 445.067 200.192 445.067Z" fill="#E1DEE5"/>
<path opacity="0.1" d="M345.398 377.475C345.736 378.966 345.66 380.343 344.854 381.393C343.219 383.014 341.414 384.454 339.469 385.687L431.25 392.528L406.095 360.827L362.314 341.916C362.314 341.916 342.696 343.004 338.821 355.771C338.555 356.671 338.373 357.593 338.276 358.525C337.869 362.505 338.974 366.493 341.371 369.698C342.897 371.848 344.799 374.83 345.398 377.475Z" fill="black"/>
<path d="M435.064 252.686L359.861 254.318V344.218L431.25 392.55L448.415 376.767L444.873 324.522L448.415 275.815L435.064 252.686Z" fill="#65617D"/>
<path d="M477.843 237.97L390.041 210.971C388.455 210.484 386.791 210.299 385.136 210.427L175.386 225.72C157.445 226.947 140.177 233.029 125.436 243.314C111.861 252.876 98.4174 267.554 92.1941 289.774C87.7072 306.175 88.0344 323.518 93.1368 339.739L111.638 399.603C111.638 399.603 97.7416 269.535 236.431 263.004L477.843 237.97Z" fill="#D9D6DF"/>
<path opacity="0.1" d="M341.35 369.72C342.897 371.837 344.799 374.83 345.399 377.475C347.775 374.727 348.287 371.624 344.854 369.148C340.554 366.024 339.121 360.604 338.799 355.793C338.534 356.693 338.351 357.614 338.255 358.547C337.848 362.527 338.952 366.514 341.35 369.72Z" fill="white"/>
<path d="M121.175 384.365L131.529 419.467L154.962 442.324L184.389 448.31L230.164 440.147V277.698C230.164 277.698 222.263 272.528 221.445 272.528C220.628 272.528 198.557 276.065 198.557 276.065L148.586 311.858L146.515 313.344L124.172 346.541L121.175 384.365Z" fill="#65617D"/>
<path d="M230.164 270.917V440.169L225.75 440.958V270.917H230.164Z" fill="#65617D"/>
<path opacity="0.1" d="M435.064 252.686L359.861 254.318V344.218L431.25 392.55L448.415 376.767L444.873 324.522L448.415 275.815L435.064 252.686Z" fill="black"/>
<path opacity="0.1" d="M230.164 270.917V440.169L225.75 440.958V270.917H230.164Z" fill="black"/>
<path opacity="0.1" d="M147.604 323.162C180.301 296.332 216.649 292.386 230.164 291.897V277.698C230.164 277.698 222.262 272.528 221.445 272.528C220.628 272.528 198.557 276.065 198.557 276.065L148.585 311.858L147.604 323.162Z" fill="black"/>
<path d="M511.085 308.718C511.085 308.718 507.712 317.622 504.093 327.989C500.889 337.203 497.488 347.581 496.099 353.888C495.554 356.299 494.186 358.786 492.251 361.219C483.429 372.403 463.097 383.238 459.587 387.086C455.309 391.777 431.25 395.156 431.25 395.156V250.781L447.326 245.611H467.762L494.191 257.584L507.815 277.72L511.085 308.718Z" fill="#65617D"/>
<path d="M230.671 224.267C231.728 225.551 263.836 225.85 265.498 225.475L268.517 224.795C268.517 224.795 284.016 233.127 294.675 219.494C295.133 218.912 295.579 218.291 296.015 217.627C306.669 201.41 271.16 213.274 271.16 213.274C271.16 213.274 257.564 213.35 254.087 213.35H253.727C250.114 213.203 242.91 211.015 242.91 211.015C242.91 211.015 229.619 222.988 230.671 224.267Z" fill="#FCFCFC"/>
<path opacity="0.1" d="M277.536 219.38C277.536 219.38 291.133 219.456 294.609 219.494H294.691C295.149 218.912 295.596 218.291 296.032 217.627C306.685 201.41 271.177 213.274 271.177 213.274C271.177 213.274 257.58 213.35 254.103 213.35H253.744C253.4 213.796 253.062 214.264 252.73 214.759C241.891 230.835 277.536 219.38 277.536 219.38Z" fill="black"/>
<path d="M305.754 220.871C305.754 220.871 298.076 218.444 294.599 218.405C291.122 218.367 277.526 218.297 277.526 218.297C277.526 218.297 241.892 229.725 252.72 213.644C263.548 197.562 280.3 206.781 280.3 206.781L283.324 206.133C284.992 205.774 317.111 206.433 318.135 207.728C319.16 209.023 305.754 220.871 305.754 220.871Z" fill="#FCFCFC"/>
<path d="M321.678 211.777C321.678 211.777 321.46 222.242 314.195 222.841C298.937 224.087 302.817 218.199 302.817 218.199L304.136 206.476L311.324 199.978C311.324 199.978 314.479 201.426 314.888 201.181C315.296 200.936 321.678 211.777 321.678 211.777Z" fill="#989898"/>
<path d="M218.557 225.018C219.003 225.088 219.576 225.159 220.235 225.219C225.074 225.66 234.573 225.763 234.573 225.763C234.573 225.763 241.657 211.728 247.717 212.158C247.717 212.158 242.131 205.823 239.864 206.58C239.483 206.705 239.248 206.427 239.128 205.883C238.529 203.162 240.616 193.91 240.616 193.91L243.488 181.393L226.856 185.486C225.347 185.79 220.666 188.207 220.666 188.207C220.666 188.207 220.513 194.694 219.303 196.207C218.093 197.72 216.736 204.958 216.884 206.765C217.031 208.571 215.222 217.029 217.036 219.282C218.851 221.535 214.78 224.414 218.557 225.018Z" fill="#989898"/>
<path opacity="0.1" d="M235.63 192.125C235.63 192.125 221.734 193.633 221.129 197.105C220.524 200.577 235.63 192.125 235.63 192.125Z" fill="black"/>
<path opacity="0.1" d="M227.319 205.703C226.415 206.008 221.129 207.363 220.072 210.536C219.014 213.709 227.319 205.703 227.319 205.703Z" fill="black"/>
<path opacity="0.1" d="M220.862 225.78C225.701 226.22 235.2 226.324 235.2 226.324C235.2 226.324 242.284 212.289 248.344 212.718C248.344 212.718 242.753 206.384 240.491 207.14C240.11 207.265 239.87 206.988 239.756 206.444C233.838 208.25 222.557 212.664 221.451 220.414C221.135 222.525 220.944 224.289 220.862 225.78Z" fill="black"/>
<path opacity="0.1" d="M448.486 62.3129C454.996 62.3129 460.274 57.0426 460.274 50.5415C460.274 44.0403 454.996 38.77 448.486 38.77C441.977 38.77 436.699 44.0403 436.699 50.5415C436.699 57.0426 441.977 62.3129 448.486 62.3129Z" fill="#989898"/>
<path opacity="0.1" d="M500.802 88.6422C505.921 88.6422 510.071 84.4976 510.071 79.3851C510.071 74.2725 505.921 70.1279 500.802 70.1279C495.682 70.1279 491.532 74.2725 491.532 79.3851C491.532 84.4976 495.682 88.6422 500.802 88.6422Z" fill="#989898"/>
<path opacity="0.1" d="M526.731 38.0409C528.536 38.0409 530 36.5789 530 34.7756C530 32.9722 528.536 31.5103 526.731 31.5103C524.925 31.5103 523.461 32.9722 523.461 34.7756C523.461 36.5789 524.925 38.0409 526.731 38.0409Z" fill="#989898"/>
<path d="M67.6551 375.249C67.6551 375.249 71.5406 380.327 65.8622 387.989C60.1839 395.652 55.5082 402.139 57.3883 406.906C57.3883 406.906 65.9603 392.669 72.9411 392.474C79.9219 392.278 75.3607 383.82 67.6551 375.249Z" fill="#989898"/>
<path opacity="0.1" d="M67.6555 375.249C67.9951 375.738 68.263 376.273 68.4512 376.838C75.2576 384.827 78.8869 392.283 72.3421 392.474C66.2441 392.648 58.9309 403.532 57.1816 406.28C57.2367 406.493 57.3059 406.702 57.3887 406.906C57.3887 406.906 65.9608 392.669 72.9415 392.474C79.9223 392.278 75.3611 383.82 67.6555 375.249Z" fill="black"/>
<path d="M74.881 381.72C74.881 383.505 74.6794 384.952 74.4342 384.952C74.1889 384.952 73.9873 383.505 73.9873 381.72C73.9873 379.935 74.238 380.773 74.4832 380.773C74.7284 380.773 74.881 379.929 74.881 381.72Z" fill="#FFD037"/>
<path d="M77.3605 383.853C75.791 384.708 74.4232 385.225 74.3033 385.007C74.1834 384.789 75.3605 383.918 76.9354 383.064C78.5103 382.21 77.8836 382.83 78.0253 383.064C78.167 383.298 78.9354 382.999 77.3605 383.853Z" fill="#FFD037"/>
<path d="M47.1164 375.249C47.1164 375.249 43.2309 380.327 48.9093 387.989C54.5876 395.652 59.2633 402.139 57.3887 406.906C57.3887 406.906 48.8112 392.669 41.8358 392.474C34.8605 392.278 39.4381 383.82 47.1164 375.249Z" fill="#989898"/>
<path opacity="0.1" d="M47.1164 375.249C46.7768 375.738 46.5089 376.273 46.3208 376.838C39.5144 384.827 35.885 392.283 42.4298 392.474C48.5278 392.648 55.841 403.532 57.5957 406.28C57.5382 406.493 57.4691 406.701 57.3887 406.906C57.3887 406.906 48.8112 392.669 41.8358 392.474C34.8605 392.278 39.4381 383.82 47.1164 375.249Z" fill="black"/>
<path d="M39.8906 381.72C39.8906 383.505 40.0923 384.952 40.3375 384.952C40.5827 384.952 40.7843 383.505 40.7843 381.72C40.7843 379.935 40.5337 380.773 40.2884 380.773C40.0432 380.773 39.8906 379.929 39.8906 381.72Z" fill="#FFD037"/>
<path d="M37.4103 383.853C38.9798 384.708 40.3476 385.225 40.4675 385.007C40.5874 384.789 39.4103 383.918 37.8354 383.064C36.2605 382.21 36.8872 382.83 36.7455 383.064C36.6038 383.298 35.8354 382.999 37.4103 383.853Z" fill="#FFD037"/>
<path opacity="0.1" d="M57.7884 445.752C80.1845 444.168 98.1427 440.102 97.8993 436.669C97.656 433.236 79.3031 431.737 56.9071 433.321C34.511 434.904 16.5528 438.971 16.7962 442.404C17.0395 445.836 35.3924 447.336 57.7884 445.752Z" fill="#989898"/>
<path d="M78.3093 400.065L78.1132 401.649L77.8407 403.891L77.7317 404.822L77.4592 407.064L77.3393 408L77.0669 410.237L73.9552 435.706C73.6773 437.981 69.9608 439.75 65.4704 439.75H49.3018C44.8114 439.75 41.1003 437.981 40.8224 435.706L37.7053 410.237L37.4328 408L37.3184 407.064L37.0404 404.822L36.9315 403.891L36.659 401.649L36.4628 400.065C36.3048 398.775 38.3211 397.693 40.8605 397.693H73.9171C76.4511 397.693 78.4674 398.775 78.3093 400.065Z" fill="#65617D"/>
<path d="M78.113 401.654L77.8405 403.891H36.9258L36.6533 401.654H78.113Z" fill="#9D9CB5"/>
<path d="M77.7259 404.827L77.4534 407.069H37.318L37.04 404.827H77.7259Z" fill="#9D9CB5"/>
<path d="M77.3337 408L77.0612 410.237H37.7051L37.4326 408H77.3337Z" fill="#9D9CB5"/>
<path opacity="0.1" d="M382.079 219.559L396.967 220.316L372.428 228.033L359.861 227.309L382.079 219.559Z" fill="black"/>
<path d="M382.074 218.912L396.962 219.674L372.417 227.391L359.851 226.661L382.074 218.912Z" fill="white"/>
<path d="M380.319 220.599C380.902 220.343 381.535 220.805 382.161 220.914C382.521 220.98 382.891 220.914 383.251 220.969C383.981 221.056 384.712 221.513 385.431 221.279L380.319 220.599Z" fill="#D3DAE1"/>
<path d="M379.557 221.056C380.14 220.8 380.772 221.263 381.399 221.371C381.758 221.437 382.129 221.371 382.488 221.426C383.219 221.513 383.949 221.97 384.641 221.731L379.557 221.056Z" fill="#D3DAE1"/>
<path d="M377.807 221.97C378.39 221.714 379.022 222.177 379.654 222.286C380.008 222.351 380.379 222.286 380.744 222.34C381.474 222.427 382.204 222.884 382.924 222.645L377.807 221.97Z" fill="#D3DAE1"/>
<path d="M415.452 216.648C415.452 216.648 413.588 225.312 421.877 226.335L422.389 225.377C422.389 225.377 415.953 219.341 415.452 216.648Z" fill="#989898"/>
<path d="M425.027 225.312L423.097 225.72L422.907 225.758C422.907 225.758 417.762 221.589 417.828 212.283C418.515 213.655 419.339 214.955 420.285 216.163C422.324 218.857 424.64 222.454 425.027 225.312Z" fill="#989898"/>
<path d="M425.675 226.204C425.523 226.302 425.351 226.364 425.172 226.387C424.993 226.409 424.811 226.391 424.64 226.335C419.691 225.181 421.37 209.078 421.37 209.078C421.642 209.208 421.942 211.254 423.081 213.899C425.07 218.547 427.266 225.034 425.675 226.204Z" fill="#989898"/>
<path d="M436.661 216.648C436.661 216.648 436.983 225.312 428.694 226.335L428.182 225.377C428.182 225.377 436.116 219.341 436.661 216.648Z" fill="#989898"/>
<path d="M434.275 212.283C434.34 221.589 427.659 225.758 427.659 225.758L427.463 225.72L425.539 225.312C425.921 222.454 428.264 218.857 430.275 216.163C431.429 214.698 432.774 213.393 434.275 212.283Z" fill="#989898"/>
<path d="M427.435 225.36C427.139 225.719 426.767 226.007 426.345 226.204C426.214 226.261 426.077 226.305 425.936 226.335C424.721 226.623 424.301 225.741 424.367 224.256C424.481 221.6 426.149 217.001 427.637 213.562C428.352 211.87 429.409 210.343 430.743 209.078C430.743 209.078 430.666 221.643 427.435 225.36Z" fill="#989898"/>
<path d="M426.051 203.429C426.051 203.429 420.525 223.02 425.283 225.954C430.04 228.887 427.272 205.165 426.051 203.429Z" fill="#989898"/>
<path opacity="0.1" d="M415.452 216.648C415.452 216.648 413.588 225.312 421.877 226.335L422.389 225.377C422.389 225.377 415.953 219.341 415.452 216.648Z" fill="black"/>
<path opacity="0.1" d="M425.027 225.312L423.097 225.72L422.907 225.758C422.907 225.758 417.762 221.589 417.828 212.283C418.515 213.655 419.339 214.955 420.285 216.163C422.324 218.857 424.64 222.454 425.027 225.312Z" fill="black"/>
<path opacity="0.1" d="M425.675 226.204C425.523 226.302 425.351 226.364 425.172 226.387C424.993 226.409 424.811 226.391 424.64 226.335C419.691 225.181 421.37 209.078 421.37 209.078C421.642 209.208 421.942 211.254 423.081 213.899C425.07 218.547 427.266 225.034 425.675 226.204Z" fill="black"/>
<path opacity="0.1" d="M436.661 216.648C436.661 216.648 436.983 225.312 428.694 226.335L428.182 225.377C428.182 225.377 436.116 219.341 436.661 216.648Z" fill="black"/>
<path opacity="0.1" d="M434.275 212.283C434.34 221.589 427.659 225.758 427.659 225.758L427.463 225.72L425.539 225.312C425.921 222.454 428.264 218.857 430.275 216.163C431.429 214.698 432.774 213.393 434.275 212.283Z" fill="black"/>
<path opacity="0.1" d="M427.435 225.36C427.139 225.719 426.767 226.007 426.345 226.204C426.214 226.261 426.077 226.305 425.936 226.335C424.721 226.623 424.301 225.741 424.367 224.256C424.481 221.6 426.149 217.001 427.637 213.562C428.352 211.87 429.409 210.343 430.743 209.078C430.743 209.078 430.666 221.643 427.435 225.36Z" fill="black"/>
<path opacity="0.1" d="M426.051 203.429C426.051 203.429 420.525 223.02 425.283 225.954C430.04 228.887 427.272 205.165 426.051 203.429Z" fill="black"/>
<path d="M415.452 216.648C415.452 216.648 414.362 225.312 422.645 226.335L423.157 225.377C423.157 225.377 415.953 219.341 415.452 216.648Z" fill="#989898"/>
<path d="M425.795 225.312L423.866 225.72L423.675 225.758C423.675 225.758 417.762 221.589 417.828 212.283C417.828 212.283 419.343 213.916 421.054 216.163C423.092 218.857 425.408 222.454 425.795 225.312Z" fill="#989898"/>
<path opacity="0.1" d="M425.795 225.312L423.866 225.72C422.04 224.114 421.315 219.935 421.054 216.163C423.092 218.857 425.408 222.454 425.795 225.312Z" fill="black"/>
<path d="M426.449 226.204C426.296 226.301 426.123 226.364 425.943 226.386C425.763 226.409 425.581 226.391 425.408 226.335C420.46 225.181 421.365 209.078 421.365 209.078C421.637 209.208 422.711 211.254 423.844 213.899C425.844 218.547 428.035 225.034 426.449 226.204Z" fill="#989898"/>
<path d="M436.662 216.648C436.662 216.648 437.752 225.312 429.468 226.335L428.956 225.377C428.956 225.377 436.117 219.341 436.662 216.648Z" fill="#989898"/>
<path d="M434.275 212.283C434.34 221.589 428.427 225.758 428.427 225.758L428.237 225.72L426.308 225.312C426.689 222.454 429.032 218.857 431.049 216.163C432.76 213.905 434.275 212.283 434.275 212.283Z" fill="#989898"/>
<path opacity="0.1" d="M431.049 216.163C430.798 219.679 430.155 223.548 428.591 225.361C428.481 225.488 428.363 225.608 428.237 225.72L426.308 225.312C426.689 222.454 429.032 218.857 431.049 216.163Z" fill="black"/>
<path d="M428.204 225.36C427.909 225.721 427.536 226.009 427.114 226.204C426.984 226.261 426.849 226.304 426.71 226.335C425.49 226.623 425.076 225.741 425.135 224.256C425.255 221.6 426.923 217.001 428.405 213.562C429.495 211.08 430.481 209.208 430.743 209.078C430.743 209.078 431.441 221.643 428.204 225.36Z" fill="#989898"/>
<path opacity="0.1" d="M426.449 226.204C426.168 226.202 425.894 226.114 425.664 225.954C423.337 224.506 423.288 219.069 423.844 213.899C425.844 218.547 428.034 225.034 426.449 226.204Z" fill="black"/>
<path opacity="0.1" d="M428.204 225.361C427.937 225.937 427.577 226.242 427.114 226.204C426.878 226.17 426.653 226.084 426.455 225.954C425.851 225.537 425.39 224.944 425.136 224.256C425.256 221.6 426.923 217.001 428.405 213.562C428.939 218.335 429.119 223.401 428.204 225.361Z" fill="black"/>
<path d="M426.051 203.429C426.051 203.429 421.299 223.02 426.051 225.954C430.803 228.887 427.272 205.165 426.051 203.429Z" fill="#989898"/>
<path d="M433.506 226.917L433.174 228.648L431.964 234.999H420.46L419.25 228.648L418.918 226.917H433.506Z" fill="#65617D"/>
<path opacity="0.1" d="M433.506 226.917L433.174 228.648H419.25L418.918 226.917H433.506Z" fill="black"/>
<path d="M435.942 224.99H416.155V228.261H435.942V224.99Z" fill="#65617D"/>
<path d="M469.396 252.664C469.396 252.664 508.502 277.154 499.946 316.555C499.249 319.771 498.644 322.999 498.246 326.258C496.682 339.026 487.298 375.657 431.25 392.528V396.337L455.026 389.714L471.167 380.827L483.489 369.785L498.551 351.439L505.543 336.473L508.104 316.762L509.559 294.253L505.957 274.977L497.461 262.422L487.107 254.378L469.396 252.664Z" fill="#D9D6DF"/>
<path d="M109.001 357.78C105.306 377.371 108.173 397.752 117.818 415.227C145.943 466.177 205.713 451.184 223.347 445.404C227.543 444.027 231.794 442.835 236.099 441.861L430.34 397.899C497.189 386.291 510.993 332.229 510.993 332.229C524.229 290.531 515.156 266.237 503.178 252.468C498.435 247.078 492.524 242.839 485.894 240.072C479.264 237.306 472.09 236.084 464.917 236.501L441.877 237.72L237.069 260.033C141.327 261.056 115.753 321.916 109.001 357.78ZM127.971 360.234C134.428 329.399 159.757 284.675 241.222 281.916C244.96 281.785 248.693 281.458 252.404 280.963L435.572 256.528L456.781 255.439C472.716 254.639 488.094 262.046 496.928 275.309C505.363 287.984 509.925 307.962 499.489 339.02C499.489 339.02 486.721 386.215 424.902 396.354L245.489 434.721C241.407 435.592 237.374 436.658 233.391 437.888C217.119 442.906 163.011 455.63 136.728 412.898C127.066 397.186 124.189 378.28 127.971 360.234Z" fill="#E1DEE5"/>
</g>
<defs>
<clipPath id="clip0_59_10214">
<rect width="530" height="452" fill="white"/>
</clipPath>
</defs>
</svg>
